<?xml version="1.0" encoding="UTF-8" standalone="no"?>
<svg
   xmlns:dc="http://purl.org/dc/elements/1.1/"
   xmlns:cc="http://creativecommons.org/ns#"
   xmlns:rdf="http://www.w3.org/1999/02/22-rdf-syntax-ns#"
   xmlns:svg="http://www.w3.org/2000/svg"
   xmlns="http://www.w3.org/2000/svg"
   xmlns:xlink="http://www.w3.org/1999/xlink"
   xmlns:sodipodi="http://sodipodi.sourceforge.net/DTD/sodipodi-0.dtd"
   xmlns:inkscape="http://www.inkscape.org/namespaces/inkscape"
   height="320"
   width="320"
   version="1.1"
   id="svg4"
   sodipodi:docname="Járvány-szimuláció.svg"
   inkscape:version="0.92.5 (2060ec1f9f, 2020-04-08)"
   inkscape:export-filename="/home/ckarai/tmp/kamutelapo/covid/képek/Járvány-szimuláció.png"
   inkscape:export-xdpi="150"
   inkscape:export-ydpi="150">
  <metadata
     id="metadata10">
    <rdf:RDF>
      <cc:Work
         rdf:about="">
        <dc:format>image/svg+xml</dc:format>
        <dc:type
           rdf:resource="http://purl.org/dc/dcmitype/StillImage" />
        <dc:title></dc:title>
      </cc:Work>
    </rdf:RDF>
  </metadata>
  <defs
     id="defs8">
    <marker
       inkscape:stockid="Arrow1Lend"
       orient="auto"
       refY="0"
       refX="0"
       id="Arrow1Lend"
       style="overflow:visible"
       inkscape:isstock="true">
      <path
         id="path838"
         d="M 0,0 5,-5 -12.5,0 5,5 Z"
         style="fill:#000000;fill-opacity:1;fill-rule:evenodd;stroke:#000000;stroke-width:1.00000003pt;stroke-opacity:1"
         transform="matrix(-0.8,0,0,-0.8,-10,0)"
         inkscape:connector-curvature="0" />
    </marker>
    <marker
       inkscape:stockid="Arrow1Lstart"
       orient="auto"
       refY="0"
       refX="0"
       id="Arrow1Lstart"
       style="overflow:visible"
       inkscape:isstock="true">
      <path
         id="path835"
         d="M 0,0 5,-5 -12.5,0 5,5 Z"
         style="fill:#000000;fill-opacity:1;fill-rule:evenodd;stroke:#000000;stroke-width:1.00000003pt;stroke-opacity:1"
         transform="matrix(0.8,0,0,0.8,10,0)"
         inkscape:connector-curvature="0" />
    </marker>
    <marker
       inkscape:stockid="Arrow1Lstart"
       orient="auto"
       refY="0"
       refX="0"
       id="Arrow1Lstart-3"
       style="overflow:visible"
       inkscape:isstock="true">
      <path
         inkscape:connector-curvature="0"
         id="path835-5"
         d="M 0,0 5,-5 -12.5,0 5,5 Z"
         style="fill:#000000;fill-opacity:1;fill-rule:evenodd;stroke:#000000;stroke-width:1.00000003pt;stroke-opacity:1"
         transform="matrix(0.8,0,0,0.8,10,0)" />
    </marker>
    <marker
       inkscape:stockid="Arrow1Lend"
       orient="auto"
       refY="0"
       refX="0"
       id="Arrow1Lend-6"
       style="overflow:visible"
       inkscape:isstock="true">
      <path
         inkscape:connector-curvature="0"
         id="path838-2"
         d="M 0,0 5,-5 -12.5,0 5,5 Z"
         style="fill:#000000;fill-opacity:1;fill-rule:evenodd;stroke:#000000;stroke-width:1.00000003pt;stroke-opacity:1"
         transform="matrix(-0.8,0,0,-0.8,-10,0)" />
    </marker>
    <marker
       inkscape:stockid="Arrow1Lstart"
       orient="auto"
       refY="0"
       refX="0"
       id="Arrow1Lstart-3-7"
       style="overflow:visible"
       inkscape:isstock="true">
      <path
         inkscape:connector-curvature="0"
         id="path835-5-0"
         d="M 0,0 5,-5 -12.5,0 5,5 Z"
         style="fill:#000000;fill-opacity:1;fill-rule:evenodd;stroke:#000000;stroke-width:1.00000003pt;stroke-opacity:1"
         transform="matrix(0.8,0,0,0.8,10,0)" />
    </marker>
    <marker
       inkscape:stockid="Arrow1Lend"
       orient="auto"
       refY="0"
       refX="0"
       id="Arrow1Lend-6-9"
       style="overflow:visible"
       inkscape:isstock="true">
      <path
         inkscape:connector-curvature="0"
         id="path838-2-3"
         d="M 0,0 5,-5 -12.5,0 5,5 Z"
         style="fill:#000000;fill-opacity:1;fill-rule:evenodd;stroke:#000000;stroke-width:1.00000003pt;stroke-opacity:1"
         transform="matrix(-0.8,0,0,-0.8,-10,0)" />
    </marker>
  </defs>
  <sodipodi:namedview
     pagecolor="#ffffff"
     bordercolor="#666666"
     borderopacity="1"
     objecttolerance="10"
     gridtolerance="10"
     guidetolerance="10"
     inkscape:pageopacity="0"
     inkscape:pageshadow="2"
     inkscape:window-width="1680"
     inkscape:window-height="987"
     id="namedview6"
     showgrid="false"
     inkscape:zoom="1.668772"
     inkscape:cx="241.68615"
     inkscape:cy="209.18787"
     inkscape:window-x="0"
     inkscape:window-y="0"
     inkscape:window-maximized="1"
     inkscape:current-layer="svg4" />
  <rect
     style="opacity:1;fill:#ffffff;fill-opacity:1;fill-rule:nonzero;stroke:none;stroke-width:4.64396381;stroke-linecap:butt;stroke-linejoin:miter;stroke-miterlimit:4;stroke-dasharray:none;stroke-dashoffset:0;stroke-opacity:1;paint-order:normal"
     id="rect3102"
     width="327.17749"
     height="313.65131"
     x="-7.8260455"
     y="1.008152" />
  <text
     xml:space="preserve"
     style="font-style:normal;font-variant:normal;font-weight:bold;font-stretch:normal;font-size:22px;line-height:125%;font-family:Sans;-inkscape-font-specification:'Sans Bold';letter-spacing:0px;word-spacing:0px;fill:#000000;fill-opacity:1;stroke:none;stroke-width:1px;stroke-linecap:butt;stroke-linejoin:miter;stroke-opacity:1"
     x="14.26441"
     y="29.553402"
     id="text825"><tspan
       sodipodi:role="line"
       id="tspan823"
       x="14.26441"
       y="29.553402">Mindenki elkapja a vírust?</tspan></text>
  <text
     xml:space="preserve"
     style="font-style:normal;font-weight:normal;font-size:13.33333302px;line-height:125%;font-family:Sans;letter-spacing:0px;word-spacing:0px;fill:#000000;fill-opacity:1;stroke:none;stroke-width:1px;stroke-linecap:butt;stroke-linejoin:miter;stroke-opacity:1"
     x="2.4094448"
     y="79.981041"
     id="text829"><tspan
       sodipodi:role="line"
       x="2.4094448"
       y="79.981041"
       id="tspan831">R=1.7-es járványt</tspan><tspan
       sodipodi:role="line"
       x="2.4094448"
       y="96.647705"
       id="tspan1941">70% fogja elkapni</tspan></text>
  <path
     style="fill:none;fill-rule:evenodd;stroke:#000000;stroke-width:1px;stroke-linecap:butt;stroke-linejoin:miter;stroke-opacity:1;marker-start:url(#Arrow1Lstart);marker-end:url(#Arrow1Lend)"
     d="m 21.533372,102.85617 76.613839,33.53587"
     id="path833"
     inkscape:connector-curvature="0"
     sodipodi:nodetypes="cc" />
  <text
     xml:space="preserve"
     style="font-style:normal;font-weight:normal;font-size:13.33333302px;line-height:125%;font-family:Sans;letter-spacing:0px;word-spacing:0px;fill:#000000;fill-opacity:1;stroke:none;stroke-width:1px;stroke-linecap:butt;stroke-linejoin:miter;stroke-opacity:1"
     x="180.51822"
     y="79.307945"
     id="text829-6"><tspan
       sodipodi:role="line"
       x="180.51822"
       y="79.307945"
       id="tspan831-5">R=1.6-os járványt</tspan><tspan
       sodipodi:role="line"
       x="180.51822"
       y="95.974609"
       id="tspan923">65% fogja elkapni</tspan></text>
  <path
     style="fill:none;fill-rule:evenodd;stroke:#000000;stroke-width:1px;stroke-linecap:butt;stroke-linejoin:miter;stroke-opacity:1;marker-start:url(#Arrow1Lstart-3);marker-end:url(#Arrow1Lend-6)"
     d="M 174.39764,97.79735 134.12986,148.0591"
     id="path833-9"
     inkscape:connector-curvature="0"
     sodipodi:nodetypes="cc" />
  <path
     inkscape:connector-curvature="0"
     d="m -1.9830514,299.61392 0.99999994,0.01 1,-0.01 1.00000006,0.01 1,-0.01 h 1 1 l 1,-0.03 h 1 l 1,-0.02 1.000001,-0.03 1,-0.01 0.9999994,-0.01 1,-0.01 1,-0.01 1,-0.04 1,-0.01 1,-0.04 1,-0.03 1,-0.04 1,-0.06 1,-0.03 1,-0.07 1,0.01 1,-0.03 1,-0.05 1,-0.03 1,-0.08 1,-0.03 1,-0.12 1,-0.04 1,-0.06 1,-0.03 1,-0.08 1,-0.02 1,-0.14 1,-0.09 1,-0.16 1,-0.09 1,-0.14 1,-0.15 1,-0.04 1,-0.14 1,-0.07 1,-0.28 1,-0.25 1,-0.24 1,-0.22 1,-0.22 1,-0.15 1,-0.24 1,-0.35 1,-0.36 1,-0.29 1,-0.3 1,-0.41 1,-0.37 1,-0.42 1,-0.44 1,-0.56 1,-0.48 1,-0.51 1,-0.78 1,-0.56 1,-0.63 1,-0.7 1,-0.88 1,-0.85 1,-0.86 1.000003,-1.02 1,-1.13 1,-1.06 1,-0.95 1,-1.26 1,-1.23 1,-1.38 1,-1.27 1,-1.5 1,-1.95 1,-1.53 1,-1.83 1,-1.78 1,-2.1 1,-2 1,-2.32 1,-2.12 1,-2.48 1,-2.47 1,-2.61 1,-2.66 1,-2.97 1,-2.92 1,-3.02 1,-3.33 1,-2.85 1,-3.4 1,-3.54 1,-3.89 1,-3.55 1,-3.71 1,-4.1 1,-3.88 0.999998,-4.26 1,-3.93 1,-4.19 1,-4.16 1,-4.16 1,-4.1 1,-4.25 1,-3.31 1,-3.62 1,-3.37 1,-3.28 1,-3.16 1,-2.76 1,-2.29 1,-2.22 1,-2.64 1,-1.58 1,-2.47 1,-1.25 1,-0.8 1,-0.99 1,-1.3 1,0.19 1,0.58 1,0.42 1,0.27 1,1.17 1,1.21 1,1.99 1,1.9 1,1.88 1,3.19 1,3.95 1,3.31 1,3.65 1,4.16 1,3.42 1,3.82 1,4.57 1,4.46 1,3.87 1,3.99 1,3.77 1,4.59 1,4.85 1,4.53 1,3.4 1,3.84 1,3.84 1,3.22 1,3.34 1,2.97 1,2.73 1,3.17 1,3.39 1,2.95 1,2.82 1,2.54 1,2.3 1,2.32 1,2.36 1,2.03 1,2.32 1,2.37 1,2.29 1,2.46 1,1.93 1,1.75 1,1.51 1,1.79 1,1.73 1,1.51 1,1.33 1,1.18 1,1.03 1,1.27 1,0.91 1,0.83 1,0.78 1,0.52 1,0.81 1,0.76 1,0.74 1,0.49 1,0.48 1,0.62 1,0.47 1,0.54 1,0.38 1,0.37 1,0.35 1,0.38 1,0.44 1,0.28 1,0.23 1,0.21 1,0.22 1,0.24 1,0.22 1,0.22 1,0.23 1,0.1 1,0.24 1,0.1 1,0.21 1,0.14 1,0.09 1,0.13 1,0.07 1,0.06 1,0.11 1,0.11 1,0.08 1,0.07 h 1 l 1,0.08 1,0.07 1,0.01 1,0.03 1,0.01 1,0.04 1,0.05 1,0.08 h 1 l 1,0.03 1,-0.01 1,0.01 h 1 l 1,0.01 1,0.02 h 1 l 1,0.04 1,-0.01 1,0.02 1,0.02 1,0.01 h 1 l 1,0.03 1,0.03 1,0.04 1,0.01 h 1 l 1,0.03 h 1 1 l 1,0.02 1,0.01 h 1 l 1,0.01 1,0.01 1,0.01 1,-0.01 h 1 1 1 1 1 1 1 1 l 1,-0.01 h 1 1 1 1 l 1,0.01 h 1 1 1 l 1,0.01 h 1 1 1 1 l 1,0.01"
     style="fill:none;stroke:#0000ff;stroke-width:2;stroke-linejoin:round"
     id="path2" />
  <path
     inkscape:connector-curvature="0"
     d="m -2.983051,300.28392 1,-0.02 h 1 l 1,-0.02 1,-0.02 1,-0.02 1,0.01 1,-0.03 1,-0.01 1,-0.07 1,-0.01 1,-0.02 1,-0.03 1,-0.02 1,-0.07 1,-0.01 1,-0.02 1,-0.05 1,-0.06 1,-0.09 1,-0.03 1,-0.03 1,-0.03 1,0.01 1,-0.01 1,-0.1 1,-0.09 1,-0.04 1,-0.06 1,-0.08 1,-0.12 1,-0.07 1,-0.05 1,-0.09 1,-0.17 1,-0.15 1,-0.22 1,-0.12 1,-0.16 1,-0.14 0.999999,-0.24 1,-0.24 1,-0.18 1,-0.23 1,-0.27 1,-0.29 1,-0.32 1,-0.29 1,-0.24 1,-0.3 1,-0.33 1,-0.53 1,-0.69 1,-0.53 1,-0.44 1,-0.45 1,-0.71 1,-0.57 1,-0.61 1,-0.73 1,-0.92 1,-0.87 1,-1.02 1,-1.09 1,-0.98 1,-1.16 1,-0.92 1,-1.24 1,-1.3 1,-1.67 1,-1.69 1,-1.98 1,-1.84 1,-2.15 1,-2.07 1,-2.38 1,-2.31 1,-2.49 1,-2.57 1,-2.76 1,-3.02 1,-3.14 1,-3.64 1,-3.85 1,-3.98 1,-4.45 1,-3.96 1,-4.05 1,-4.71 1,-4.73 1,-4.95 1,-5.19 1,-5.32 1,-5.37 1,-6.35 1,-5.78 1,-5.82 1,-6.19 1,-5.61 1,-5.28 1,-5.84 1,-6.2 1,-5.76 1.000002,-5.02 1,-5.1 1,-4.8 1,-4.79 1,-3.9 1,-3.63 1,-3.36 1,-2.59 1,-2.18 1,-1.25 1,-0.99 1,-0.79 1,0.12 1,1.35 1,1.25 1,1.69 1,2.69 1,3.26 1,2.8 1,4.57 1,5.16 1,5.36 1,5.76 1,4.98 1,5.49 1,6.2 1,6.02 1,5.78 1,5.84 1,6.15 1,6.27 1,5.64 1,5.77 1,5.81 1,4.86 1,4.95 1,5.26 1,5.22 1,4.96 1,4.15 1,4.65 1,4.09 1,4.07 1,3.7 1,2.77 1,3.6 1,3.43 1,2.79 1,2.93 1,2.47 1,2.26 1,2.29 1,2.05 1,1.84 1,1.87 1,1.85 1,1.57 1,1.54 1,1.59 1,1.08 1,1.43 1,1.16 1,0.81 1,0.98 1,0.99 1,0.67 1,0.69 1,0.95 1,0.52 1,0.58 1,0.5 1,0.47 1,0.61 1,0.52 1,0.31 1,0.31 1,0.44 1,0.23 1,0.27 1,0.31 1,0.33 1,0.29 1,0.32 1,0.17 1,0.21 1,0.16 1,0.13 1,0.11 1,0.12 1,0.14 1,0.09 1,0.13 1,0.11 1,0.06 1,0.07 h 1 l 1,0.02 1,0.07 1,0.04 1,0.1 1,0.02 1,0.04 1,0.02 1,0.02 1,-0.02 1,0.01 h 1 l 1,0.01 1,0.01 1,0.03 1,0.02 h 1 l 1,0.01 1,0.01 1,0.01 1,0.02 1,0.03 1,0.01 1,0.03 1,0.03 h 1 l 1,0.02 1,0.01 1,-0.01 1,0.02 1,0.02 h 1 1 1 1 1 1 l 1,0.01 h 1 1 1 1 l 1,0.01"
     style="fill:none;stroke:#ff00ff;stroke-width:2;stroke-linejoin:round"
     id="path2-3" />
  <text
     xml:space="preserve"
     style="font-style:normal;font-variant:normal;font-weight:bold;font-stretch:normal;font-size:22px;line-height:125%;font-family:Sans;-inkscape-font-specification:'Sans Bold';letter-spacing:0px;word-spacing:0px;fill:#000000;fill-opacity:1;stroke:none;stroke-width:1px;stroke-linecap:butt;stroke-linejoin:miter;stroke-opacity:1"
     x="97.917007"
     y="58.897873"
     id="text825-6"><tspan
       sodipodi:role="line"
       id="tspan823-7"
       x="97.917007"
       y="58.897873">szimuláció</tspan></text>
  <rect
     style="opacity:1;fill:#fff7be;fill-opacity:1;fill-rule:nonzero;stroke:none;stroke-width:0.98299998;stroke-linecap:butt;stroke-linejoin:miter;stroke-miterlimit:4;stroke-dasharray:none;stroke-dashoffset:0;stroke-opacity:1;paint-order:normal"
     id="rect3241"
     width="136.64435"
     height="136.07022"
     x="170.18913"
     y="124.40076" />
  <rect
     style="opacity:1;fill:#fff7be;fill-opacity:1;fill-rule:nonzero;stroke:#000000;stroke-width:0.974657;stroke-linecap:butt;stroke-linejoin:miter;stroke-miterlimit:4;stroke-dasharray:none;stroke-dashoffset:0;stroke-opacity:1;paint-order:normal"
     id="rect3251"
     width="143.84773"
     height="138.4545"
     x="162.98994"
     y="119.62368" />
  <flowRoot
     xml:space="preserve"
     style="font-style:normal;font-weight:normal;font-size:10.66666698px;line-height:125%;font-family:Sans;text-align:justify;letter-spacing:0px;word-spacing:0px;text-anchor:start;fill:#000000;fill-opacity:1;stroke:none;stroke-width:1px;stroke-linecap:butt;stroke-linejoin:miter;stroke-opacity:1"
     id="flowRoot3243"
     transform="translate(-4.1947012,16.404542)"><flowRegion
       id="flowRegion3245"
       style="font-size:10.66666698px;text-align:justify;text-anchor:start"><use
         x="0"
         y="0"
         xlink:href="#rect3241"
         id="use3247"
         width="100%"
         height="100%"
         transform="translate(0,-20)" /></flowRegion><flowPara
       id="flowPara3249">Legalább 4.2-es R kell a 99%-os fertőzéshez és csillapítatlan járvány. A szimuláció pár hónap alatt végigfutott  és mindenkit megfertőzött. Elvi akadálya nincs a teljes fertőzésnek. </flowPara><flowPara
       id="flowPara3253">Az egyszerűsített modell nem foglalkozik a mutációkkal.</flowPara></flowRoot></svg>
