<?xml version="1.0" encoding="UTF-8" standalone="no"?>
<svg
   xmlns:dc="http://purl.org/dc/elements/1.1/"
   xmlns:cc="http://creativecommons.org/ns#"
   xmlns:rdf="http://www.w3.org/1999/02/22-rdf-syntax-ns#"
   xmlns:svg="http://www.w3.org/2000/svg"
   xmlns="http://www.w3.org/2000/svg"
   xmlns:xlink="http://www.w3.org/1999/xlink"
   xmlns:sodipodi="http://sodipodi.sourceforge.net/DTD/sodipodi-0.dtd"
   xmlns:inkscape="http://www.inkscape.org/namespaces/inkscape"
   height="200"
   width="320"
   version="1.1"
   id="svg4"
   sodipodi:docname="Oltás-szimuláció.svg"
   inkscape:version="0.92.5 (2060ec1f9f, 2020-04-08)"
   inkscape:export-filename="/home/ckarai/tmp/kamutelapo/covid/képek/Oltás-szimuláció.png"
   inkscape:export-xdpi="150"
   inkscape:export-ydpi="150">
  <metadata
     id="metadata10">
    <rdf:RDF>
      <cc:Work
         rdf:about="">
        <dc:format>image/svg+xml</dc:format>
        <dc:type
           rdf:resource="http://purl.org/dc/dcmitype/StillImage" />
      </cc:Work>
    </rdf:RDF>
  </metadata>
  <defs
     id="defs8">
    <marker
       inkscape:stockid="Arrow1Lend"
       orient="auto"
       refY="0.0"
       refX="0.0"
       id="Arrow1Lend"
       style="overflow:visible;"
       inkscape:isstock="true">
      <path
         id="path838"
         d="M 0.0,0.0 L 5.0,-5.0 L -12.5,0.0 L 5.0,5.0 L 0.0,0.0 z "
         style="fill-rule:evenodd;stroke:#000000;stroke-width:1pt;stroke-opacity:1;fill:#000000;fill-opacity:1"
         transform="scale(0.8) rotate(180) translate(12.5,0)" />
    </marker>
    <marker
       inkscape:stockid="Arrow1Lstart"
       orient="auto"
       refY="0.0"
       refX="0.0"
       id="Arrow1Lstart"
       style="overflow:visible"
       inkscape:isstock="true">
      <path
         id="path835"
         d="M 0.0,0.0 L 5.0,-5.0 L -12.5,0.0 L 5.0,5.0 L 0.0,0.0 z "
         style="fill-rule:evenodd;stroke:#000000;stroke-width:1pt;stroke-opacity:1;fill:#000000;fill-opacity:1"
         transform="scale(0.8) translate(12.5,0)" />
    </marker>
    <marker
       inkscape:stockid="Arrow1Lstart"
       orient="auto"
       refY="0"
       refX="0"
       id="Arrow1Lstart-3"
       style="overflow:visible"
       inkscape:isstock="true">
      <path
         inkscape:connector-curvature="0"
         id="path835-5"
         d="M 0,0 5,-5 -12.5,0 5,5 Z"
         style="fill:#000000;fill-opacity:1;fill-rule:evenodd;stroke:#000000;stroke-width:1.00000003pt;stroke-opacity:1"
         transform="matrix(0.8,0,0,0.8,10,0)" />
    </marker>
    <marker
       inkscape:stockid="Arrow1Lend"
       orient="auto"
       refY="0"
       refX="0"
       id="Arrow1Lend-6"
       style="overflow:visible"
       inkscape:isstock="true">
      <path
         inkscape:connector-curvature="0"
         id="path838-2"
         d="M 0,0 5,-5 -12.5,0 5,5 Z"
         style="fill:#000000;fill-opacity:1;fill-rule:evenodd;stroke:#000000;stroke-width:1.00000003pt;stroke-opacity:1"
         transform="matrix(-0.8,0,0,-0.8,-10,0)" />
    </marker>
    <marker
       inkscape:stockid="Arrow1Lstart"
       orient="auto"
       refY="0"
       refX="0"
       id="Arrow1Lstart-3-7"
       style="overflow:visible"
       inkscape:isstock="true">
      <path
         inkscape:connector-curvature="0"
         id="path835-5-0"
         d="M 0,0 5,-5 -12.5,0 5,5 Z"
         style="fill:#000000;fill-opacity:1;fill-rule:evenodd;stroke:#000000;stroke-width:1.00000003pt;stroke-opacity:1"
         transform="matrix(0.8,0,0,0.8,10,0)" />
    </marker>
    <marker
       inkscape:stockid="Arrow1Lend"
       orient="auto"
       refY="0"
       refX="0"
       id="Arrow1Lend-6-9"
       style="overflow:visible"
       inkscape:isstock="true">
      <path
         inkscape:connector-curvature="0"
         id="path838-2-3"
         d="M 0,0 5,-5 -12.5,0 5,5 Z"
         style="fill:#000000;fill-opacity:1;fill-rule:evenodd;stroke:#000000;stroke-width:1.00000003pt;stroke-opacity:1"
         transform="matrix(-0.8,0,0,-0.8,-10,0)" />
    </marker>
  </defs>
  <sodipodi:namedview
     pagecolor="#ffffff"
     bordercolor="#666666"
     borderopacity="1"
     objecttolerance="10"
     gridtolerance="10"
     guidetolerance="10"
     inkscape:pageopacity="0"
     inkscape:pageshadow="2"
     inkscape:window-width="1680"
     inkscape:window-height="987"
     id="namedview6"
     showgrid="false"
     inkscape:zoom="3.337544"
     inkscape:cx="127.91066"
     inkscape:cy="24.285829"
     inkscape:window-x="0"
     inkscape:window-y="0"
     inkscape:window-maximized="1"
     inkscape:current-layer="svg4" />
  <rect
     style="opacity:1;fill:#ffffff;fill-opacity:1;fill-rule:nonzero;stroke:none;stroke-width:3.72065663;stroke-linecap:butt;stroke-linejoin:miter;stroke-miterlimit:4;stroke-dasharray:none;stroke-dashoffset:0;stroke-opacity:1;paint-order:normal"
     id="rect3102"
     width="327.17749"
     height="201.33005"
     x="-7.8260455"
     y="-0.4531644" />
  <path
     inkscape:connector-curvature="0"
     d="m -0.30663357,196.69934 h 1 l 0.99999997,-0.01 1,-0.01 1,-0.05 1,-0.02 1,-0.03 1,0.02 1,-0.03 h 0.9999995 1 l 1.0000001,-0.02 1,0.01 1,-0.02 1,-0.03 1,-0.02 1,-0.01 1,-0.03 1,-0.04 h 1 l 1,-0.01 1,-0.06 1,-0.07 1,-0.05 1,-0.05 1,-0.02 1,-0.09 1,-0.08 1,-0.04 1,-0.04 1,-0.08 1,-0.07 h 1 l 1,-0.11 1,-0.1 1,-0.07 1,-0.04 1,-0.14 1,-0.11 1,-0.11 1,-0.21 1,-0.1 1,-0.16 1,-0.08 1,-0.17 1,-0.24 1,-0.14 1,-0.13 1,-0.25 1,-0.18 1,-0.19 1,-0.22 1,-0.23 1,-0.29 1,-0.15 1,-0.32 1,-0.21 1,-0.33 1,-0.23 1,-0.36 1,-0.49 1,-0.35 1,-0.14 1,-0.6 1,-0.6 1,-0.3 1,-0.44 1,-0.61 1,-0.52 1,-0.77 1,-0.85 1,-0.66 1,-0.79 1,-0.54 1,-0.58 1,-0.92 1,-1.28 1,-1.1 1,-0.93 1,-1.12 1,-1.29 1,-1.33 1,-1.71 1,-1.59 1,-1.24 1,-1.9 1,-1.78 1,-2 1,-2.37 1,-2.24 1,-2.06 1,-2.35 1,-2.7 1,-2.75 1,-2.6 1,-2.78 1,-2.89 1,-2.69 1,-3.18 1,-3.36 1,-3.38999 1.000004,-3.16 1,-2.78 1,-3.74 1,-3.83 1,-3.45 1,-4.11 1,-3.6 1,-3.88 1,-3.690002 1,-4.06 1,-3.87 1,-3.62 1,-3.3 1,-3.41 1,-3.96 1,-4.29 1,-3.32 1,-3.34 1,-2.8 1,-2.39 1,-2.21 1,-1.97 1,-2.39 1,-1.32 1,-1.17 1,-1.19 1,-0.68 1,-0.64 1,-0.08 1,0.46 1,0.59 1,0.89 1,0.92 1,1.92 1,2.02 1,1.72 1,2.94 1,2.13 1,2.66 1,2.37 1,3.14 1,3.58 1,3.51 1,3.65 1,3.96 1,4.14 1,4.21 1,3.67 1,3.22 1,3.790002 1,3.61 1,4.36 1,3.62 1,4.09 1,4 1,3.31 1,3.81 1,3.32999 1,3.35 1,2.73 1,2.89 1,3.27 1,2.85 1,2.73 1,2.9 1,2.47 1,2.32 1,2.5 1,1.61 1,2.08 1,1.76 1,1.95 1,1.55 1,1.98 1,1.41 1,1.24 1,1.26 1,1.43 1,0.92 1,1.28 1,1.23 1,0.8 1,1.03 1,1.02 1,0.83 1,0.74 1,0.84 1,0.79 1,0.75 1,0.59 1,0.71 1,0.55 1,0.53 1,0.38 1,0.55 1,0.49 1,0.35 1,0.35 1,0.31 1,0.42 1,0.39 1,0.37 1,0.3 1,0.18 1,0.24 1,0.17 1,0.23 1,0.18 1,0.1 1,0.22 1,0.21 1,0.1 1,0.17 1,0.08 1,0.11 1,0.03 1,0.06 1,0.11 1,-0.02 1,0.11 1,0.07 1,0.09 1,0.08 1,0.04 h 1 l 1,0.06 1,0.04 1,0.07 1,0.05 1,0.06 1,0.05 1,0.05 1,0.08 1,0.09 1,0.04 1,0.05 1,0.04 1,0.03 1,0.03 h 1 l 1,0.01 1,0.04 1,-0.01 1,0.03 1,0.02 1,0.03 1,0.03 h 1 1 l 1,-0.01 1,0.01 h 1 l 1,0.01 1,0.01 1,0.02 h 1 l 1,0.01 1,0.02 h 1 1 1 1 l 1,0.01 1,0.02 h 1 l 1,0.01 h 1 l 1,0.01"
     style="fill:none;stroke:#0000ff;stroke-width:2;stroke-linejoin:round"
     id="path2" />
  <text
     xml:space="preserve"
     style="font-style:normal;font-variant:normal;font-weight:bold;font-stretch:normal;font-size:22px;line-height:125%;font-family:Sans;-inkscape-font-specification:'Sans Bold';letter-spacing:0px;word-spacing:0px;fill:#000000;fill-opacity:1;stroke:none;stroke-width:1px;stroke-linecap:butt;stroke-linejoin:miter;stroke-opacity:1"
     x="50.100677"
     y="21.019485"
     id="text825"><tspan
       sodipodi:role="line"
       id="tspan823"
       x="50.100677"
       y="21.019485">Oltás-szimuláció</tspan></text>
  <path
     style="fill:none;fill-rule:evenodd;stroke:#000000;stroke-width:1px;stroke-linecap:butt;stroke-linejoin:miter;stroke-opacity:1;marker-start:url(#Arrow1Lstart-3);marker-end:url(#Arrow1Lend-6)"
     d="m 234.95193,109.0193 -30.31922,70.89107"
     id="path833-9"
     inkscape:connector-curvature="0"
     sodipodi:nodetypes="cc" />
  <text
     xml:space="preserve"
     style="font-style:normal;font-weight:normal;font-size:12px;line-height:125%;font-family:Sans;letter-spacing:0px;word-spacing:0px;fill:#000000;fill-opacity:1;stroke:none;stroke-width:1px;stroke-linecap:butt;stroke-linejoin:miter;stroke-opacity:1"
     x="-4.1547871"
     y="56.355927"
     id="text829"><tspan
       sodipodi:role="line"
       x="-4.1547871"
       y="56.355927"
       id="tspan921"
       style="font-size:12px;text-align:start;text-anchor:start">Napi 2 ezrelék oltása</tspan></text>
  <rect
     style="opacity:1;fill:none;fill-opacity:1;fill-rule:nonzero;stroke:none;stroke-width:1.79854548;stroke-linecap:butt;stroke-linejoin:miter;stroke-miterlimit:4;stroke-dasharray:none;stroke-dashoffset:0;stroke-opacity:1;paint-order:normal"
     id="rect959"
     width="130.49525"
     height="78.81356"
     x="187.30136"
     y="40.677967" />
  <flowRoot
     xml:space="preserve"
     style="font-style:normal;font-weight:normal;font-size:13.33333302px;line-height:125%;font-family:Sans;letter-spacing:0px;word-spacing:0px;fill:#000000;fill-opacity:1;stroke:none;stroke-width:1px;stroke-linecap:butt;stroke-linejoin:miter;stroke-opacity:1"
     id="flowRoot961"><flowRegion
       id="flowRegion963"><use
         x="0"
         y="0"
         xlink:href="#rect959"
         id="use965" /></flowRegion><flowPara
       id="flowPara967">Lassul a járvány és ellaposodik. A haranggörbe forma megmarad.</flowPara></flowRoot>  <path
     inkscape:connector-curvature="0"
     d="m -0.30663357,196.69934 h 1 l 0.99999997,0.01 1,-0.01 1,-0.01 1,-0.01 1,-0.01 1,-0.02 1,0.02 1,-0.01 h 1 l 0.9999996,-0.03 1,0.02 1,0.01 h 1 l 1,0.01 1,-0.02 1,-0.01 1,-0.02 1,-0.02 1,-0.03 h 1 l 1,-0.05 1,-0.02 1,-0.05 h 1 l 1,-0.05 1,-0.03 1,-0.02 1,-0.03 1,-0.08 1,-0.05 1,-0.04 1,-0.05 h 1 l 1,-0.04 1,-0.02 1,-0.04 1,-0.07 1,-0.04 1,-0.03 1,-0.11 1,-0.1 1,-0.1 1,0.02 1,-0.07 1,-0.11 1,-0.13 1,-0.17 1,-0.13 1,-0.06 1,-0.12 1,-0.04 1,-0.05 1,-0.14 1,-0.09 1,-0.07 1,-0.13 1,-0.25 1,-0.18 1,-0.18 1,-0.02 1,-0.15 1,-0.14 1,-0.22 1,-0.27 1,-0.32 1,-0.38 1,-0.2 1,-0.3 1,-0.27 1,-0.29 1,-0.27 1,-0.31 1,-0.3 1,-0.44 1,-0.54 1,-0.41 1,-0.49 1,-0.43 1,-0.46 1,-0.47 1,-0.67 1,-0.57 1,-0.84 1,-0.65 1,-0.6 1,-0.74 1,-0.76 1,-0.89 1,-0.78 1,-0.95 1,-1.12 1,-0.97 1,-1.12 1,-1.27 1,-1.01 1,-1.19 1,-1.17 1,-1.36 1,-1.34 1.000004,-1.39 1,-1.37 1,-1.54 1,-1.45 1,-1.56 1,-1.25 1,-1.44 1,-1.54 1,-1.92 1,-1.69 1,-1.53 1,-1.59 1,-1.65 1,-2.07 1,-1.53 1,-1.91 1,-1.61 1,-2.04 1,-1.62 1,-1.93 1,-1.74 1,-2.1 1,-1.08 1,-1.53 1,-2.14 1,-1.89 1,-1.75 1,-1.45 1,-1.95 1,-1.47 1,-1.14 1,-0.88 1,-1.33 1,-1.8 1,-1.05 1,-0.98 1,-0.95 1,-1 1,-0.34 1,-0.98 1,-0.37 1,-0.42 1,0.04 1,0.4 1,-0.21 1,-0.03 1,0.22 1,0.83 1,0.08 1,1.16 1,0.68 1,1.11 1,0.6 1,1.63 1,1.22 1,1.47 1,1.32 1,1.27 1,1.63 1,1.9 1,1.68 1,1.73 1,1.74 1,1.21 1,1.66 1,1.51 1,2.27 1,1.94 1,2.33 1,1.68 1,1.95 1,1.66 1,1.7 1,1.28 1,1.8 1,1.79 1,1.8 1,2.14 1,1.78 1,1.75 1,1.62 1,1.44 1,0.96 1,1.72 1,1.4 1,1.33 1,1.04 1,1.45 1,1.24 1,1.21 1,1.38 1,1.16 1,0.96 1,1.05 1,0.7 1,1.01 1,0.84 1,0.71 1,0.78 1,0.88 1,0.93 1,0.7 1,0.54 1,0.9 1,0.51 1,0.48 1,0.72 1,0.39 1,0.61 1,0.35 1,0.64 1,0.53 1,0.33 1,0.34 1,0.45 1,0.49 1,0.39 1,0.23 1,0.37 1,0.29 1,0.18 1,0.22 1,0.32 1,0.42 1,0.15 1,0.24 1,0.32 1,0.16 1,0.16 1,0.1 1,0.21 1,0.15 1,0.12 1,0.12 1,0.09 1,0.25 1,0.13 1,0.07 1,0.09 1,0.09 1,0.07 1,0.09 1,0.11 1,0.07 1,0.07 1,0.07 1,0.03 1,0.12 1,0.09 1,0.01 1,0.03 1,0.07 1,0.1 1,0.03 1,-0.01 1,0.05 1,0.03 1,0.07 1,0.04 1,0.01 1,0.05 1,-0.01 1,0.04 1,0.04 1,-0.01 1,0.01 h 1 l 1,0.01 1,0.04 h 1 l 1,0.01 1,0.01 1,0.01 1,0.02 1,0.01 1,0.01 h 1 1 l 1,0.03 h 1 1 1 1 1 1 l 1,0.01"
     style="fill:none;stroke:#ff00ff;stroke-width:2;stroke-linejoin:round"
     id="path2-6" />
</svg>
